<?xml version="1.0" encoding="utf-8"?>
<!-- Generator: Adobe Illustrator 18.0.0, SVG Export Plug-In . SVG Version: 6.00 Build 0)  -->
<!DOCTYPE svg PUBLIC "-//W3C//DTD SVG 1.1//EN" "http://www.w3.org/Graphics/SVG/1.1/DTD/svg11.dtd">
<svg version="1.1" id="Layer_1" xmlns="http://www.w3.org/2000/svg" xmlns:xlink="http://www.w3.org/1999/xlink" x="0px" y="0px"
	 viewBox="0 0 274.6 88.5" enable-background="new 0 0 274.6 88.5" xml:space="preserve">
<path d="M77.4,1c-0.4-0.7-1.1-1-2.1-0.9c-0.1,0-0.3,0-0.5,0c-3.8,0-10,1.6-11.5,4.3c-0.8,1.4-1.4,3.5-2.3,6.5
	c-1.5,5.1-3.7,12.8-7.7,19.2c-3.6,5.7-8.1,9.2-13.6,10.7c4-9.5,6.8-18.6,7.7-24.6c0.3-2.1-0.1-5.6-2.3-8.4c-1.9-2.4-4.7-3.8-8.1-4
	c-0.7-0.1-1.6,0-2.2,0.2c-3.4,1.1-9.5,3.3-15.3,6.1C12.1,13.5,7.2,17,5,20.2c-4.5,7.1-0.5,12,2.7,16c3,3.8,5.1,6.3,1.9,10.4
	c-0.8,1.1-0.9,2.5,0,3.4c0.2,0.2,0.5,0.4,0.8,0.6c0.2,0.1,0.9,0.4,1.6,0.2c1.1-0.2,1.6-0.9,1.9-1.3c0.1-0.1,0.1-0.1,0.2-0.2
	c1-1.1,1.7-1.6,2.3-2.2c0.5-0.4,1-0.9,1.8-1.6c3.6-3.7,5.2-6.6,5-9.3c-0.1-2.6-1.8-4.4-3.5-6.1c-2.5-2.6-4.9-5.1-2.9-11.2
	c0.9-2.8,8.6-6.1,11.5-7.3c0.6-0.3,1.1-0.5,1.5-0.7c1.1-0.5,2-0.7,2.7-0.7c0.7,0,1.1,0.2,1.5,0.7c0.9,1.2,2.1,5-0.7,16.9
	C31.7,34,27.7,45.1,23.6,54c-2.3,5-4.5,9.2-6.4,12.1c-2.1,3.2-3.3,4.1-3.7,4.3C13.2,68.6,12.4,65,7,65c-3.6,0-6.5,2.5-6.9,5.8
	c-0.1,1.3-0.2,3.8,0.6,4.7c2.4,2.8,4.2,3.8,7.4,3.8l0.9,0v0c4-0.4,8.3-3,12.6-7.9c4-4.6,8.3-10.9,11.8-17.7l0.4-0.8
	c1-1.9,2-3.8,2.9-5.8c5.6,4.8,5.1,12.3,4.6,19.5c-0.6,9.6-1.3,20.4,14.3,21.9c0.1,0,0.2,0,0.3,0c2.1,0,3.8-1.9,4.7-3
	c1.2-1.6,2.1-3.5,2.3-5.1c0.3-2.3-0.7-4-2.6-4.5c-0.5-0.1-1-0.2-1.5-0.2c-0.7,0-1.3,0.1-1.9,0.3c-0.7,0.2-1.4,0.4-2.8,0.4
	c-0.1,0-0.1,0-0.2,0c-3.1,0-5-0.6-5.9-1.8c-1.6-2.2-0.1-7.4,1.4-12.4c2-6.6,4.3-14,1.1-19.6c3-1.5,4.6-3.1,6.2-4.6
	c0.6-0.5,1.1-1.1,1.7-1.6c5.3-4.5,7.6-9.8,10.3-15.8c1.9-4.3,4.2-9,8-14.8C76.8,5.8,78.6,3.1,77.4,1z"/>
<path d="M81.5,23.3c-0.3-0.4-0.6-0.7-1-1.1c-0.4-0.3-0.8-0.6-1.2-0.9c-0.4-0.3-0.9-0.5-1.3-0.6
	c-0.4-0.1-0.8-0.2-1.3-0.2c-0.5,0-0.9,0.1-1.2,0.3c-0.3,0.2-0.6,0.6-0.9,1.1c-0.3,0.6-0.5,1.3-0.6,2.3c-0.2,1-0.2,2.2-0.2,3.7
	c0,1,0.1,1.9,0.3,2.6c0.2,0.7,0.5,1.3,0.9,1.8c0.4,0.5,0.8,0.8,1.3,1c0.4,0.2,0.9,0.3,1.4,0.3c0.8-1,1.5-1.9,2-2.7
	c0.6-0.9,1.1-1.7,1.5-2.4c0.4-0.7,0.6-1.3,0.8-1.9c0.2-0.5,0.2-1,0.2-1.3c0-0.3-0.1-0.6-0.2-0.9C81.9,24.1,81.7,23.7,81.5,23.3z"/>
<path d="M160.5,34.7c-1.1-0.8-2.6-1.2-4.6-1.2c-1.6,0-3.1,0.2-4.4,0.7c-1.3,0.5-2.5,1.2-3.5,2
	c-1,0.9-1.7,1.9-2.3,3.1c-0.5,1.2-0.8,2.5-0.8,3.9c0,0.7,0.1,1.5,0.3,2.5c0.2,0.9,0.5,2,0.8,3c0.3,1,0.7,2.1,1,3.2
	c0.4,1.1,0.7,2.2,1,3.2c0.3,1,0.6,2,0.8,2.9c0.2,0.9,0.3,1.7,0.3,2.4c0,0.4-0.1,0.7-0.2,1c-0.1,0.3-0.3,0.6-0.5,0.8
	c-0.2,0.2-0.5,0.3-0.7,0.4c-0.2,0.1-0.5,0.1-0.7,0.1c-0.5,0-1.1-0.2-1.7-0.5c-0.6-0.3-1.1-0.7-1.6-1.2c-0.5-0.5-0.9-1.1-1.3-1.9
	c-0.4-0.7-0.7-1.5-0.8-2.4l-0.1-0.3l0.2-0.2c0.3-0.3,0.6-0.6,0.8-0.9c0.2-0.3,0.4-0.6,0.5-0.9c0.1-0.3,0.2-0.6,0.3-0.9
	c0.1-0.3,0.1-0.6,0.1-0.9c0-0.4-0.1-0.8-0.3-1.3c-0.2-0.5-0.5-1-0.9-1.5c-0.4-0.5-0.8-0.9-1.3-1.2c-0.5-0.3-0.9-0.4-1.4-0.4
	c-0.5,0-0.8,0.1-1.2,0.4c-0.4,0.3-0.8,0.7-1.1,1.3c-0.3,0.6-0.6,1.2-0.8,2c-0.2,0.8-0.4,1.6-0.6,2.4c-0.1,0.4-0.1,0.7-0.2,1.1l0,0.2
	l-0.1,0.1c-0.9,1.2-1.8,2.2-2.5,3c-0.8,0.9-1.6,1.6-2.3,2c-0.7,0.5-1.4,0.7-2,0.7c-0.6,0-1.2-0.3-1.6-0.8c-0.4-0.4-0.7-1.1-0.9-2.1
	c-0.2-0.9-0.2-2-0.3-3.4c-0.1-1.4,0-3.1,0-5v-0.4l0.2-0.2c1.2-0.6,2.2-1.2,3.1-1.6c0.9-0.5,1.6-0.9,2.2-1.3c0.6-0.4,1-0.7,1.4-1
	c0.3-0.3,0.6-0.6,0.7-0.9c0.2-0.3,0.3-0.6,0.3-1c0.1-0.4,0.1-0.9,0.1-1.4c0-0.6-0.1-1.2-0.3-1.9c-0.2-0.6-0.5-1.1-0.9-1.6
	c-0.4-0.5-0.9-0.8-1.4-1.1c-0.6-0.3-1.3-0.4-2-0.4c-0.4,0-0.8,0.1-1.3,0.3c-0.5,0.2-1,0.5-1.5,0.9c-0.6,0.4-1.2,1-1.8,1.8
	c-0.7,0.7-1.4,1.7-2.2,2.8c-0.5,0.6-0.9,1.3-1.3,2.1c-0.4,0.8-0.8,1.5-1.2,2.3l-0.1,0.2l-0.2,0.1l-4.9,2l-1.1,0.4l0.2-1.1
	c0.1-0.8,0.3-1.7,0.5-2.7c0.2-1,0.5-2,0.9-3c0.3-1,0.7-2,1.1-3c0.4-1,0.8-1.9,1.2-2.7c0.9-1.7,1.7-3.3,2.4-4.7
	c0.7-1.4,1.3-2.7,1.8-3.8c0.5-1.1,0.9-2.1,1.3-3c0.3-0.9,0.6-1.7,0.8-2.4c0.2-0.7,0.4-1.3,0.5-1.9c0.1-0.6,0.1-1.1,0.1-1.6
	c0-0.8-0.1-1.6-0.3-2.2c-0.2-0.6-0.5-1-0.9-1.4c-0.4-0.3-0.8-0.6-1.4-0.8c-0.6-0.2-1.2-0.3-1.9-0.3c-1.4,0-2.7,0.3-3.8,0.9
	c-1.1,0.6-2.1,1.5-3,2.7c-0.9,1.3-1.8,2.9-2.5,4.9c-0.7,2-1.4,4.4-2.1,7.2c-0.6,2.8-1.2,6.1-1.7,9.7c-0.4,2.8-0.8,5.8-1.2,9.1l0,0.2
	l-0.1,0.1c-1,1.5-2,2.9-3.2,4.1c-1.2,1.3-2.4,2.4-3.6,3.3c-1.2,0.9-2.5,1.7-3.7,2.2c-1.3,0.5-2.5,0.8-3.6,0.8
	c-0.8,0-1.5-0.1-2.1-0.4c-0.6-0.3-1.1-0.7-1.5-1.2c-0.4-0.5-0.6-1.2-0.8-2c-0.2-0.8-0.2-1.7-0.2-2.7c0-1.9,0.1-3.6,0.4-5.1
	c0.3-1.5,0.6-2.8,1.1-3.9c0.4-1.1,0.9-2,1.4-2.6c0.6-0.7,1.2-1.1,1.7-1.1c0.3,0,0.7,0.1,1.2,0.6c0.3,0.4,0.5,0.9,0.5,1.6
	c0,0.5-0.1,1.2-0.2,2c-0.1,0.7-0.3,1.6-0.5,2.5c0.2,0.2,0.5,0.4,0.8,0.6c0.4,0.2,1,0.3,1.7,0.3c0.8,0,1.5-0.2,2.2-0.6
	c0.7-0.4,1.4-1,2-1.6c0.6-0.7,1.1-1.5,1.4-2.5c0.4-0.9,0.5-2,0.5-3.1c0-1-0.1-2-0.4-2.8c-0.3-0.8-0.7-1.4-1.2-2
	c-0.6-0.5-1.3-1-2.1-1.2c-0.9-0.3-1.9-0.4-3.1-0.4c-1.2,0-2.4,0.3-3.7,0.8c-1.3,0.6-2.5,1.3-3.7,2.3c-1.2,1-2.4,2.2-3.4,3.6
	c-1.1,1.4-2,2.9-2.8,4.5c-0.8,1.6-1.4,3.3-1.9,5.1c-0.2,0.7-0.3,1.5-0.5,2.2l0,0.2L78.1,54c-0.2,0.3-0.4,0.5-0.6,0.7
	c-1,1.2-2,2.2-2.8,2.9c-0.8,0.8-1.5,1.3-2.1,1.7c-0.7,0.4-1.1,0.6-1.5,0.6c-0.5,0-0.9-0.1-1.2-0.4c-0.3-0.3-0.5-0.7-0.5-1.3
	c0-0.5,0.1-1,0.2-1.6c0.1-0.5,0.3-1.2,0.6-1.9c0.3-0.7,0.6-1.6,0.9-2.5c0.4-1,0.8-2.1,1.3-3.3l0,0l0,0c0.3-0.8,0.7-1.5,1-2.3
	c0.3-0.7,0.6-1.5,0.8-2.1c0.2-0.7,0.4-1.3,0.6-1.9c0.1-0.6,0.2-1.1,0.2-1.5c0-0.7,0-1.3-0.1-1.9c-0.1-0.5-0.2-0.9-0.4-1.2
	c-0.2-0.3-0.4-0.5-0.8-0.7c-0.4-0.2-1-0.3-1.7-0.3c-0.7,0-1.4,0.2-2.1,0.5c-0.8,0.4-1.6,0.9-2.4,1.5c-0.8,0.6-1.5,1.3-2.3,2.2
	c-0.7,0.8-1.4,1.6-1.9,2.5c-0.5,0.8-1,1.7-1.3,2.5c-0.3,0.8-0.5,1.5-0.5,2.2c0,0.7,0,1.5,0.1,2.2c0.1,0.7,0.3,1.4,0.5,2.1l0.1,0.2
	L62.3,53c-0.4,1.1-0.8,2.2-1.2,3.1c-0.3,0.9-0.6,1.8-0.8,2.7c-0.2,0.8-0.4,1.6-0.5,2.4c-0.1,0.8-0.1,1.5-0.1,2.3
	c0,1,0.1,1.8,0.3,2.5c0.2,0.6,0.4,1.2,0.8,1.6c0.4,0.4,0.9,0.7,1.5,0.9c0.7,0.2,1.5,0.3,2.5,0.3c0.8,0,1.6-0.2,2.5-0.5
	c0.9-0.3,1.9-0.8,2.9-1.4c1-0.6,2-1.3,3-2.1c1-0.8,2-1.7,2.9-2.6c0.4-0.4,0.8-0.8,1.2-1.2l0.9-0.9l0.3,1.2c0,0.2,0.1,0.4,0.1,0.6
	c0.4,1.4,0.9,2.7,1.7,3.6c0.8,1,1.7,1.7,2.9,2.2c1.2,0.5,2.7,0.8,4.4,0.8c1,0,2.1-0.2,3.2-0.5c1.1-0.3,2.3-0.8,3.4-1.4
	c1.1-0.6,2.3-1.3,3.3-2c1.1-0.8,2.1-1.6,3.1-2.5c0.3-0.3,0.7-0.7,1.1-1l1-1l0.1,1.5c0,0.5,0.1,1,0.2,1.5c0.2,0.6,0.4,1.1,0.7,1.7
	c0.3,0.5,0.6,1,1,1.5c0.4,0.4,0.9,0.8,1.4,1.2c0.5,0.3,1,0.6,1.6,0.8c0.6,0.2,1.2,0.3,1.8,0.3c0.8,0,1.5-0.1,2.1-0.3
	c0.5-0.2,0.9-0.4,1.2-0.7c0-1.5,0-2.8,0.1-3.9c0-1.2,0.1-2.3,0.1-3.3c0-1,0.1-1.9,0.1-2.8c0.1-0.8,0.1-1.7,0.2-2.5l0-0.4l0.4-0.1
	l3.3-1.3l1-0.4l-0.1,1.1c-0.1,0.8-0.2,1.7-0.3,2.6c-0.1,0.9-0.1,1.8-0.1,2.7c0,2,0.1,3.7,0.3,5.1c0.2,1.4,0.6,2.5,1.1,3.3
	c0.5,0.8,1,1.4,1.7,1.7c0.7,0.4,1.6,0.5,2.7,0.5c0.8,0,1.6-0.2,2.5-0.5c0.9-0.4,1.9-0.9,2.8-1.5c1-0.7,2-1.4,2.9-2.3
	c1-0.9,1.9-1.8,2.8-2.8c0,0,0-0.1,0.1-0.1l0.1-0.1l0.8-0.9l0.3,1.2c0.1,0.3,0.2,0.6,0.3,0.9c0.5,1.3,1.2,2.4,2,3.3
	c0.8,0.9,1.9,1.5,3,2c1.2,0.4,2.4,0.7,3.8,0.7c1.1,0,2.1-0.1,3.2-0.3c1.1-0.2,2.1-0.5,3.1-0.9c1-0.4,1.9-0.9,2.8-1.5
	c0.9-0.6,1.6-1.4,2.3-2.2c0.6-0.9,1.1-1.8,1.5-3c0.4-1.1,0.6-2.4,0.6-3.8c0-0.8-0.1-1.7-0.3-2.6c-0.2-0.9-0.5-1.8-0.8-2.7
	c-0.3-0.9-0.6-1.8-1-2.6c-0.4-0.9-0.7-1.7-1-2.5c-0.3-0.8-0.6-1.6-0.8-2.3c-0.2-0.7-0.3-1.4-0.3-2c0-1.1,0.5-1.7,0.9-1.9
	c0.5-0.3,1.2-0.5,2.1-0.5c1.1,0,2.4,0.3,3.7,0.8c0.3-0.3,0.5-0.7,0.7-1.2c0.3-0.6,0.4-1.3,0.4-2C162.1,36.7,161.6,35.5,160.5,34.7z"
	/>
<path d="M189.2,51.4c-4.7,6.5-9.8,10.5-13.5,10.5c-3,0-3-2.6-3-3.6c0-1.3,0.7-5.7,2.6-13.5l0.2-0.9l0.9,0.2
	c2,0.4,3.5,0.4,5.2,0.4c1.8,0,3.2-1.7,3.2-3.9c0-0.7-0.3-1.5-0.7-2c-1.4,0.2-4.2,0.4-5.9,0.4l-1.7,0.1l0.8-1.5
	c3.7-7.5,4.6-9.3,4.6-11.3c0-2.1-0.6-3.3-3.9-3.3c-4.4,0-8,4.2-8.6,10.1c-0.3,2.7-0.4,3.9-0.4,5.3l0,0.9l-0.9,0
	c-2.5,0.1-3.6,1.7-3.6,3.4c0,0.5,0,0.7,1.8,0.9l1.2,0.1l-0.3,1.2c-2.9,9.6-3.5,13.7-3.5,15.6c0,5.7,2.8,8.6,8.4,8.6
	c8,0,18.6-12.7,18.6-16.4C190.6,52.1,189.9,51.6,189.2,51.4z"/>
<path d="M203.4,51l-1.3,9.6c-0.1,1-0.2,2-0.2,2.7c0,4.2,1.6,5,4.3,5c4.6,0,16.4-11.2,16.4-15.5
	c0-0.6-0.5-1.1-1.2-1.2c-4.1,5.7-8.2,9.3-10.4,9.3c-1.9,0-1.7-1.9-1.9-2.7c-0.3-1.6,0.6-6.2,3.5-16c0.6-1.8,0.8-3.6,0.8-4.6
	c0-2.1-2.3-4.9-6.7-4.9c-0.6,0-1.2,0.1-1.6,0.4l-0.2,3.8l-0.1,2.2l-1.6-1.6c-0.1-0.1-0.2-0.2-1.2-0.2c-3.1,0-7,2.6-10.1,6.7
	c-3.3,4.4-5.2,9.8-5.2,14.7c0,5.7,2.3,9.1,6.2,9.1c1.7,0,6.1-0.5,8.5-7.3l1-2.1c-0.8,0.6-3.3,1.2-4.1,1.2c-2,0-2.9-1.2-2.9-4
	c0-6.2,3.9-12.5,7.6-14.9l1.9-1.2l-0.3,2.2"/>
<path d="M249.1,51.6c-3.9,5.9-9,10.5-11.5,10.5c-0.7,0-2.2-0.3-2.2-2.8c0-2.4,2-6.8,3.2-9.2c1.1-2.1,1.9-3.8,1.9-5.1
	c0-0.9,0-1.8-4.5-3.1c-1.1-0.3-2.7-0.9-3.6-1.4l-0.9-0.5l0.5-0.9c1.1-1.8,2.8-3,4.2-3.8c0-0.2,0.1-0.5,0.1-0.8c0-2-2.4-2.1-3.2-2.1
	c-3.6,0-10.8,6.9-10.8,11.3c0,0.9,0.3,1.7,0.8,2.3l0.4,0.5l-0.2,0.6c-1.2,2.8-2.4,4.6-4.1,6.9l-0.6,0.8c-0.2,0.3-0.3,0.7-0.3,1.2
	c0,0.8,0.5,1.6,1.5,1.8c2.2-2.5,3.7-4.9,5.9-9l0.4-0.8l0.8,0.3c1.4,0.6,3,1.2,3,2.9c0,0.9-0.5,2.3-1.3,4.2c-1,2.7-2.3,6-2.3,8.8
	c0,3.5,1.9,5.1,5.9,5.1c2.7,0,7.1-2.6,11.4-6.8c3.9-3.7,6.8-7.9,6.8-9.8C250.6,52.4,250,51.8,249.1,51.6z"/>
<path d="M273.2,51.4c-4.7,6.5-9.8,10.5-13.5,10.5c-3,0-3-2.6-3-3.6c0-1.3,0.7-5.7,2.6-13.5l0.2-0.9l0.9,0.2
	c2,0.4,3.5,0.4,5.2,0.4c1.8,0,3.2-1.7,3.2-3.9c0-0.7-0.3-1.5-0.7-2c-1.4,0.2-4.2,0.4-5.9,0.4l-1.7,0.1l0.8-1.5
	c3.7-7.5,4.6-9.3,4.6-11.3c0-2.1-0.6-3.3-3.9-3.3c-4.4,0-8,4.2-8.6,10.1c-0.3,2.8-0.4,3.9-0.4,5.3l0,0.9l-0.9,0
	c-2.5,0.1-3.6,1.7-3.6,3.4c0,0.5,0,0.7,1.8,0.9l1.2,0.1l-0.3,1.2c-2.9,9.6-3.5,13.7-3.5,15.6c0,5.7,2.8,8.6,8.4,8.6
	c8,0,18.6-12.7,18.6-16.4C274.6,52.1,273.9,51.6,273.2,51.4z"/>
</svg>
